# xmcd CD database file
#
# Track frame offsets:
#	150
#	19536
#	61737
#	87832
#	119561
#	147250
#	192143
#	218314
#
# Disc length: 3128 seconds
#
# Revision: 0
# Processed by: cddbd v1.5.2PL0 Copyright (c) Steve Scherf et al.
# Submitted via: Feurio! 1.68 - http://www.feurio.com
#
DISCID=610c3608
DTITLE=Albert Collins and The Icebreakers - The Warner Theater   Washington, 
DTITLE=D.C.   04-09-93
DYEAR=1900
DGENRE=
TTITLE0=Trying To Work My Way Back Home
TTITLE1=If Trouble Was Money
TTITLE2=Put Your Shoe On The Other Foot
TTITLE3=Same Old Thing
TTITLE4=Things I Used To Do
TTITLE5=Head Rag
TTITLE6=I Ain't Drunk
TTITLE7=You Talk Too Much
EXTD=
EXTT0=
EXTT1=
EXTT2=
EXTT3=
EXTT4=
EXTT5=
EXTT6=
EXTT7=
PLAYORDER=
